<svg xmlns="http://www.w3.org/2000/svg" xmlns:xlink="http://www.w3.org/1999/xlink" width="96" height="96" version="1.1" viewBox="0 0 96 96"><title>adaptive_cards</title><desc>Created with Sketch.</desc><g id="assets" fill="none" fill-rule="evenodd" stroke="none" stroke-width="1"><g id="adaptive_cards"><g id="Group-21"><rect id="Rectangle-17-Copy-22" width="96" height="96" x="0" y="0" fill="#3A96DD" rx="48"/><g id="Page-1" fill="#FFF" transform="translate(22.000000, 30.000000)"><g id="Group-3"><path id="Fill-1" d="M6.38596491,0.911322807 C2.86091228,0.911322807 0,3.77223509 0,7.29728772 L0,19.9702351 L3.19298246,19.9702351 L3.19298246,7.29728772 C3.19298246,5.53795439 4.62663158,4.10430526 6.38596491,4.10430526 L35.122807,4.10430526 L35.122807,0.911322807 L6.38596491,0.911322807 Z"/></g><polygon id="Fill-4" points="0 36.034 12.922 36.034 12.922 32.841 5.45 32.841 15.805 22.489 13.548 20.232 3.193 30.584 3.193 23.163 0 23.163"/><g id="Group-8" transform="translate(35.122807, 0.000000)"><polygon id="Fill-6" points="3.193 .911 3.193 4.104 10.514 4.104 .16 14.459 2.417 16.717 12.772 6.362 12.772 13.683 15.965 13.683 15.965 .911"/></g><path id="Fill-9" d="M47.8947368,29.6481649 C47.8947368,31.4106912 46.4610877,32.8411474 44.7017544,32.8411474 L16.1149825,32.8411474 L16.1149825,36.0341298 L44.7017544,36.0341298 C48.226807,36.0341298 51.0877193,33.1732175 51.0877193,29.6481649 L51.0877193,16.8762351 L47.8947368,16.8762351 L47.8947368,29.6481649 Z"/></g></g></g></g></svg>